<svg width="163" height="36" viewBox="0 0 163 36" fill="none" xmlns="http://www.w3.org/2000/svg">
<g clip-path="url(#clip0_78_16)">
<path d="M64.3715 25.2877C63.3246 27.2544 61.6912 28.6771 59.4716 29.5977C57.2519 30.5183 54.6972 30.9787 51.8075 30.9787C48.9176 30.9787 47.1587 30.6439 45.3159 29.9325V35.3306C47.3262 35.7909 49.4621 36.0001 51.8075 36.0001C54.1527 36.0001 56.1211 35.7909 58.1733 35.3306C60.1834 34.8703 62.0262 34.2007 63.6595 33.322C65.2929 32.4432 66.675 31.3134 67.8476 29.9744C69.0202 28.6353 69.8998 27.087 70.528 25.3295H64.4134M70.2348 11.9808C69.5647 9.55379 68.3921 7.46149 66.8006 5.74589C65.2091 4.03019 63.157 2.69109 60.6861 1.77049C58.2151 0.849887 55.3254 0.389587 52.0168 0.389587C48.7083 0.389587 47.3682 0.640687 45.2741 1.18469V6.62459C47.2425 5.82959 49.5459 5.45289 52.1006 5.45289C54.6553 5.45289 55.4929 5.66219 57.0424 6.12249C58.634 6.58279 59.9741 7.21039 61.1468 8.04739C62.3194 8.88429 63.2408 9.88859 63.9527 11.1021C64.6647 12.3156 65.0416 13.6965 65.0835 15.2448H45.2322V20.0988H70.6955C71.0305 17.1278 70.8211 14.4497 70.1511 11.9808H70.2348Z" fill="white"/>
<g opacity="0.5">
<mask id="mask0_78_16" style="mask-type:luminance" maskUnits="userSpaceOnUse" x="0" y="-3" width="26" height="24">
<g opacity="0.5">
<path d="M25.5052 -3H0V20.0987H25.5052V-3Z" fill="white"/>
</g>
</mask>
<g mask="url(#mask0_78_16)">
<path d="M21.7365 14.7843L18.051 19.6802L3.76978 0.347687H11.5595L21.7365 14.7843Z" fill="white"/>
</g>
</g>
<path d="M32.6672 0.347717L21.7783 14.7425L18.051 19.6802L18.5955 20.3916H24.9194L36.1015 5.99682V24.7854C36.2271 27.1706 36.8553 29.3047 38.0698 31.104C39.033 32.5686 40.2476 33.824 41.7553 34.8283V0.347717H32.7092H32.6672Z" fill="white"/>
<path d="M102.233 24.7853V29.8486H103.112V25.0783L102.694 25.5386H104.871C105.165 25.5386 105.416 25.6223 105.583 25.7478C105.751 25.9152 105.834 26.0826 105.834 26.3755C105.834 26.6684 105.751 26.8358 105.583 27.0032C105.416 27.1705 105.165 27.2124 104.871 27.2124H102.609V27.9656H104.913C105.29 27.9656 105.625 27.8819 105.918 27.7564C106.211 27.6308 106.421 27.4216 106.547 27.1705C106.714 26.9195 106.756 26.6684 106.756 26.3336C106.756 25.9989 106.672 25.7478 106.547 25.4967C106.379 25.2456 106.169 25.0783 105.918 24.9109C105.625 24.7854 105.332 24.7017 104.913 24.7017H102.233V24.7853ZM96.4531 25.5804H101.563V24.7853H96.4531V25.5804ZM98.5472 29.8905H99.4267V25.2038H98.5472V29.8905ZM91.2181 27.7145H95.2805V26.9195H91.2181V27.7145ZM94.8617 29.8905H95.7412V24.8272H94.8617V29.8905ZM90.7575 29.8905H91.6369V24.8272H90.7575V29.8905ZM86.2762 25.0783L85.8574 25.5804H89.7523V24.8272H85.3549L85.7737 27.3798L85.3549 29.9323H89.7942V29.1791H85.8574L86.2762 29.6813L86.6531 27.4216L86.2762 25.1619V25.0783ZM86.0668 27.7145H89.6266V26.9613H86.0668V27.7145ZM83.0096 24.7853V29.3465L83.2608 29.0954H79.5335L79.7848 29.3465V24.7853H78.9053V29.8486H84.3079L83.889 29.7231V30.8948H84.7266V29.0536H83.5539L83.8053 29.3047V24.7435H82.9258L83.0096 24.7853Z" fill="white"/>
<path d="M134.688 16.0397C134.94 16.2071 135.275 16.2908 135.652 16.2908C136.029 16.2908 136.364 16.2071 136.615 16.0397C136.866 15.8723 137.034 15.5794 137.117 15.2446H136.406C136.364 15.412 136.28 15.5375 136.155 15.6212C136.029 15.7049 135.861 15.7468 135.693 15.7468C135.526 15.7468 135.359 15.7049 135.233 15.6212C135.108 15.5375 135.024 15.412 134.982 15.2446H134.27C134.353 15.6212 134.521 15.8723 134.772 16.0397M134.186 21.7307L137.746 17.0858H137.453C137.453 17.044 137.453 21.7307 137.453 21.7307H138.332V16.6674H137.159L133.6 21.2704H133.893C133.893 21.3122 133.893 16.6674 133.893 16.6674H133.013V21.7307H134.144H134.186ZM131.045 21.7307H131.924V16.6674H131.045V21.7307ZM128.616 21.7307C128.993 21.7307 129.328 21.647 129.621 21.5214C129.914 21.3959 130.124 21.1867 130.291 20.9356C130.459 20.6845 130.501 20.4335 130.501 20.0987C130.501 19.7639 130.417 19.5129 130.291 19.2618C130.124 19.0107 129.914 18.8433 129.621 18.676C129.328 18.5504 128.993 18.4667 128.616 18.4667H126.354V19.1781H128.574C128.868 19.1781 129.119 19.2618 129.328 19.4292C129.495 19.5966 129.579 19.8058 129.579 20.0569C129.579 20.3079 129.495 20.5172 129.328 20.6845C129.161 20.8519 128.91 20.9356 128.574 20.9356H126.439L126.857 21.3541V16.5837H125.977V21.647H128.657L128.616 21.7307ZM120.24 19.5966H124.303V18.8015H120.24V19.5966ZM123.883 21.7307H124.763V16.6674H123.883V21.7307ZM119.779 21.7307H120.659V16.6674H119.779V21.7307ZM114 17.4624H119.109V16.6674H114V17.4624ZM116.094 21.7307H116.974V17.044H116.094V21.7307ZM109.267 16.6674V21.7307H110.147V16.9603L109.728 17.4206H111.905C112.199 17.4206 112.45 17.5043 112.618 17.6298C112.785 17.7972 112.869 17.9646 112.869 18.2575C112.869 18.5504 112.785 18.7178 112.618 18.8852C112.45 19.0526 112.199 19.0944 111.905 19.0944H109.645V19.8476H111.947C112.325 19.8476 112.659 19.7639 112.952 19.6384C113.246 19.5129 113.456 19.3036 113.581 19.0526C113.748 18.8015 113.79 18.5504 113.79 18.2156C113.79 17.8809 113.707 17.6298 113.581 17.3787C113.414 17.1277 113.204 16.9603 112.952 16.7929C112.659 16.6674 112.367 16.5837 111.947 16.5837H109.267V16.6674ZM104.409 20.8101C104.116 20.6427 103.865 20.4335 103.698 20.1824C103.529 19.8895 103.445 19.5966 103.445 19.2199C103.445 18.8433 103.529 18.5086 103.698 18.2575C103.865 17.9646 104.074 17.7554 104.409 17.6298C104.702 17.4624 105.079 17.4206 105.456 17.4206C105.833 17.4206 106.21 17.5043 106.503 17.6298C106.796 17.7972 107.047 18.0064 107.216 18.2575C107.383 18.5504 107.467 18.8433 107.467 19.2199C107.467 19.5966 107.383 19.9313 107.216 20.1824C107.047 20.4753 106.838 20.6845 106.503 20.8101C106.21 20.9774 105.833 21.0193 105.456 21.0193C105.079 21.0193 104.702 20.9356 104.409 20.8101ZM107.005 21.5214C107.425 21.3122 107.801 20.9774 108.011 20.6008C108.262 20.2242 108.387 19.7639 108.387 19.2199C108.387 18.676 108.262 18.2575 108.011 17.839C107.76 17.4624 107.425 17.1277 107.005 16.9184C106.587 16.7092 106.043 16.5837 105.498 16.5837C104.954 16.5837 104.409 16.7092 103.99 16.9184C103.571 17.1277 103.194 17.4624 102.985 17.839C102.734 18.2157 102.609 18.676 102.609 19.2199C102.609 19.7639 102.734 20.2242 102.985 20.6008C103.236 20.9774 103.571 21.3122 103.99 21.5214C104.409 21.7307 104.954 21.8562 105.498 21.8562C106.043 21.8562 106.587 21.7307 107.005 21.5214ZM96.7031 16.6674V21.7307H97.5826V17.044L97.1638 17.4624H101.184L100.765 17.044V21.7307H101.645V16.6674H96.6612H96.7031ZM94.986 19.7221C94.9442 19.9732 94.8185 20.2242 94.651 20.4335C94.4835 20.6427 94.2741 20.7682 94.0228 20.8938C93.7715 20.9775 93.4783 21.0611 93.1014 21.0611C92.7245 21.0611 92.3476 20.9774 92.0544 20.8519C91.7612 20.6845 91.5518 20.4753 91.3843 20.2242C91.2168 19.9313 91.133 19.6384 91.133 19.2618C91.133 18.8852 91.2168 18.5504 91.3843 18.2993C91.5518 18.0064 91.7612 17.7972 92.0544 17.6717C92.3476 17.5043 92.6826 17.4624 93.1014 17.4624C93.5202 17.4624 93.7297 17.5043 94.0228 17.6298C94.2741 17.7554 94.4835 17.8809 94.651 18.0901C94.8185 18.2993 94.9442 18.5086 94.986 18.8015H95.9074C95.8655 18.383 95.698 18.0064 95.4886 17.7135C95.2373 17.3787 94.9022 17.1695 94.5253 16.9603C94.1066 16.7929 93.6877 16.7092 93.1433 16.7092C92.5988 16.7092 92.0544 16.8347 91.6356 17.044C91.2168 17.2532 90.8818 17.588 90.6305 17.9646C90.3792 18.3412 90.2536 18.8015 90.2536 19.3455C90.2536 19.8895 90.3792 20.3498 90.6305 20.7264C90.8818 21.103 91.2168 21.4377 91.6356 21.647C92.0544 21.8562 92.557 21.9817 93.1433 21.9817C93.7297 21.9817 94.1066 21.8981 94.5253 21.7307C94.9022 21.5633 95.2373 21.3122 95.4886 20.9774C95.7398 20.6427 95.8655 20.3079 95.9074 19.8895H94.986V19.7221ZM89.2484 21.7307H90.2536L88.2433 18.5504L87.6151 19.1781L89.2484 21.7307ZM85.9818 21.7307L90.1698 16.6674H89.2066L85.8143 20.8101L86.0656 20.9774V16.6674H85.186V21.7307H85.9818ZM83.8458 18.8852H80.5792V19.5129H83.8458V18.8852ZM82.9244 21.5214C83.3433 21.3122 83.6784 20.9774 83.9296 20.6008C84.1809 20.2242 84.3065 19.7639 84.3065 19.2199C84.3065 18.676 84.1809 18.2575 83.9296 17.839C83.6784 17.4206 83.3433 17.1277 82.9244 16.9184C82.5057 16.7092 82.0031 16.5837 81.4168 16.5837C80.8305 16.5837 80.4536 16.6674 80.0347 16.8347C79.616 17.0021 79.3227 17.2532 79.0715 17.5461C78.8202 17.839 78.6527 18.2156 78.6108 18.6341H79.4903C79.5322 18.383 79.6578 18.132 79.8254 17.9646C79.9929 17.7554 80.2023 17.6298 80.4954 17.5043C80.7467 17.3787 81.0817 17.3369 81.4168 17.3369C81.7519 17.3369 82.1706 17.4206 82.4638 17.5461C82.757 17.7135 83.0082 17.9227 83.1758 18.2156C83.3433 18.5086 83.4271 18.8433 83.4271 19.2199C83.4271 19.5966 83.3433 19.9313 83.1758 20.2242C83.0082 20.5171 82.7988 20.7264 82.4638 20.8938C82.1706 21.0611 81.7937 21.103 81.4168 21.103C81.0399 21.103 80.7467 21.0611 80.4954 20.9356C80.2441 20.8101 79.9929 20.6845 79.8254 20.4753C79.6578 20.2661 79.5322 20.0568 79.4903 19.8058H78.6108C78.6527 20.2242 78.8202 20.559 79.0715 20.8519C79.3227 21.1448 79.6578 21.3959 80.0347 21.5633C80.4536 21.7307 80.8723 21.8144 81.4168 21.8144C81.9612 21.8144 82.5057 21.6888 82.9244 21.4796" fill="white"/>
<path d="M157.681 5.62008C158.1 5.87118 158.603 5.99669 159.231 5.99669C159.859 5.99669 160.362 5.87118 160.781 5.62008C161.199 5.36898 161.493 4.95059 161.618 4.36469H160.026C159.943 4.53209 159.859 4.65768 159.733 4.78318C159.608 4.86688 159.441 4.90869 159.273 4.90869C159.106 4.90869 158.937 4.86688 158.812 4.78318C158.686 4.69948 158.561 4.57399 158.519 4.36469H156.928C157.053 4.95059 157.346 5.36898 157.765 5.62008M158.017 12.9849L161.535 7.46128L160.99 7.33578V12.9849H163V6.37329H160.32L156.844 11.7714L157.388 11.8969V6.37329H155.378V12.9849H157.975H158.017ZM149.221 12.9849L152.739 7.46128L152.195 7.33578V12.9849H154.205V6.37329H151.525L148.049 11.7714L148.594 11.8969V6.37329H146.583V12.9849H149.179H149.221ZM143.777 12.9849H146.123L143.526 8.67479L142.018 9.88828L143.819 12.9849H143.777ZM140.72 12.9849L146.039 6.37329H143.903L140.385 10.9345L140.929 11.3529V6.37329H138.877V12.9849H140.72ZM135.945 10.1813C135.903 10.4323 135.778 10.6416 135.61 10.8508C135.443 11.0182 135.234 11.1856 135.024 11.2692C134.773 11.3529 134.48 11.3948 134.145 11.3948C133.809 11.3948 133.433 11.3111 133.181 11.1855C132.93 11.06 132.721 10.8508 132.553 10.5997C132.385 10.3486 132.344 10.0557 132.344 9.67908C132.344 9.30248 132.427 9.00958 132.553 8.75848C132.721 8.50738 132.889 8.29819 133.181 8.17269C133.433 8.04709 133.767 7.96338 134.145 7.96338C134.521 7.96338 134.773 8.00529 135.024 8.08899C135.276 8.17269 135.485 8.34009 135.61 8.50739C135.778 8.67479 135.862 8.88408 135.945 9.13508H137.998C137.914 8.54928 137.705 8.00528 137.369 7.58678C137.034 7.12648 136.574 6.79179 136.029 6.54069C135.485 6.28959 134.856 6.16409 134.103 6.16409C133.349 6.16409 132.636 6.28959 132.051 6.58249C131.464 6.87549 131.003 7.25209 130.711 7.79609C130.376 8.29819 130.207 8.92588 130.207 9.59538C130.207 10.265 130.376 10.8926 130.711 11.3948C131.045 11.8969 131.507 12.3154 132.051 12.6083C132.636 12.9012 133.307 13.0267 134.103 13.0267C134.898 13.0267 135.443 12.9012 136.029 12.6501C136.574 12.3991 137.034 12.0643 137.369 11.604C137.705 11.1437 137.914 10.6416 137.998 10.0557H135.945V10.1813ZM124.973 9.59538L124.512 6.83358L123.716 7.75418H126.564C126.774 7.75418 126.9 7.79609 127.025 7.92159C127.151 8.00529 127.193 8.17269 127.193 8.29819C127.193 8.42379 127.151 8.63298 127.025 8.75848C126.9 8.88408 126.732 8.92588 126.564 8.92588H124.177V10.2649H126.858C127.109 10.2649 127.318 10.3486 127.444 10.4742C127.569 10.5997 127.653 10.7671 127.653 10.9345C127.653 11.1019 127.569 11.3111 127.444 11.3948C127.318 11.5203 127.151 11.5622 126.9 11.5622H123.716L124.512 12.4828L124.973 9.55359V9.59538ZM128.491 9.42798C128.784 9.26068 128.993 9.05138 129.119 8.80038C129.245 8.54928 129.329 8.29819 129.329 8.00529C129.329 7.50319 129.161 7.12648 128.826 6.83358C128.491 6.54068 127.989 6.41518 127.402 6.41518H122.544L123.046 9.63729L122.544 13.0267H127.569C128.072 13.0267 128.449 12.9431 128.784 12.7757C129.119 12.6083 129.37 12.3991 129.538 12.1062C129.705 11.8132 129.789 11.5203 129.789 11.1437C129.789 10.7671 129.705 10.516 129.538 10.2649C129.37 10.0139 129.119 9.80468 128.784 9.67908C128.449 9.55358 128.03 9.46988 127.527 9.42798L127.36 9.80469C127.862 9.76279 128.24 9.63728 128.533 9.46988M116.89 11.1437C116.597 11.0182 116.387 10.8089 116.22 10.5997C116.053 10.3486 116.011 10.0557 116.011 9.72099C116.011 9.38619 116.095 9.09328 116.22 8.84218C116.387 8.59108 116.597 8.42379 116.89 8.29819C117.183 8.17269 117.518 8.08899 117.895 8.08899C118.271 8.08899 118.649 8.17269 118.9 8.29819C119.193 8.42379 119.402 8.63298 119.571 8.84218C119.738 9.09328 119.78 9.38619 119.78 9.72099C119.78 10.0557 119.696 10.3486 119.571 10.5997C119.402 10.8508 119.193 11.0182 118.9 11.1437C118.607 11.2692 118.271 11.3529 117.895 11.3529C117.518 11.3529 117.142 11.2692 116.89 11.1437ZM119.989 12.7338C120.575 12.4409 121.036 12.0643 121.371 11.5203C121.706 11.0182 121.874 10.3905 121.874 9.72099C121.874 9.05139 121.706 8.42379 121.371 7.92159C121.036 7.41949 120.575 7.00098 119.989 6.70808C119.402 6.41518 118.691 6.28959 117.895 6.28959C117.1 6.28959 116.387 6.41518 115.801 6.70808C115.215 7.00098 114.754 7.37759 114.419 7.92159C114.084 8.42379 113.917 9.05139 113.917 9.72099C113.917 10.3905 114.084 11.0182 114.419 11.5203C114.754 12.0225 115.215 12.4409 115.801 12.7338C116.387 13.0268 117.1 13.1523 117.895 13.1523C118.691 13.1523 119.402 13.0268 119.989 12.7338ZM111.822 12.9849H114.168L111.571 8.67479L110.064 9.88828L111.864 12.9849H111.822ZM108.766 12.9849L114.084 6.37329H111.948L108.43 10.9345L108.975 11.3529V6.37329H106.922V12.9849H108.766ZM103.991 10.1813C103.949 10.4323 103.823 10.6416 103.655 10.8508C103.488 11.0182 103.279 11.1856 103.07 11.2692C102.819 11.3529 102.525 11.3948 102.19 11.3948C101.855 11.3948 101.477 11.3111 101.226 11.1855C100.975 11.06 100.766 10.8508 100.599 10.5997C100.431 10.3486 100.389 10.0557 100.389 9.67908C100.389 9.30248 100.473 9.00958 100.599 8.75848C100.766 8.50738 100.933 8.29819 101.226 8.17269C101.477 8.04709 101.813 7.96338 102.19 7.96338C102.566 7.96338 102.819 8.00529 103.07 8.08899C103.321 8.17269 103.53 8.34009 103.655 8.50739C103.823 8.67479 103.907 8.88408 103.991 9.13508H106.043C105.959 8.54928 105.75 8.00528 105.415 7.58678C105.079 7.12648 104.619 6.79179 104.075 6.54069C103.53 6.28959 102.902 6.16409 102.148 6.16409C101.394 6.16409 100.682 6.28959 100.096 6.58249C99.5095 6.87549 99.0489 7.25209 98.7557 7.79609C98.4206 8.29819 98.2532 8.92588 98.2532 9.59538C98.2532 10.265 98.4206 10.8926 98.7557 11.3948C99.0908 11.8969 99.5515 12.3154 100.096 12.6083C100.682 12.9012 101.352 13.0267 102.148 13.0267C102.944 13.0267 103.488 12.9012 104.075 12.6501C104.619 12.3991 105.079 12.0643 105.415 11.604C105.75 11.1437 105.959 10.6416 106.043 10.0557H103.991V10.1813ZM92.725 11.1437C92.4317 11.0182 92.2224 10.8089 92.0548 10.5997C91.8874 10.3486 91.8454 10.0557 91.8454 9.72099C91.8454 9.38619 91.9292 9.09328 92.0548 8.84218C92.2224 8.59108 92.4317 8.42379 92.725 8.29819C93.0181 8.17269 93.3531 8.08899 93.73 8.08899C94.107 8.08899 94.484 8.17269 94.7352 8.29819C95.0284 8.42379 95.2378 8.63298 95.4053 8.84218C95.5728 9.09328 95.6147 9.38619 95.6147 9.72099C95.6147 10.0557 95.5309 10.3486 95.4053 10.5997C95.2378 10.8508 95.0284 11.0182 94.7352 11.1437C94.442 11.2692 94.107 11.3529 93.73 11.3529C93.3531 11.3529 92.9762 11.2692 92.725 11.1437ZM95.8241 12.7338C96.4105 12.4409 96.8711 12.0643 97.2061 11.5203C97.5412 11.0182 97.7087 10.3905 97.7087 9.72099C97.7087 9.05139 97.5412 8.42379 97.2061 7.92159C96.8711 7.41949 96.4105 7.00098 95.8241 6.70808C95.2378 6.41518 94.5258 6.28959 93.73 6.28959C92.9344 6.28959 92.2224 6.41518 91.6361 6.70808C91.0497 7.00098 90.589 7.37759 90.254 7.92159C89.9189 8.42379 89.7514 9.05139 89.7514 9.72099C89.7514 10.3905 89.9189 11.0182 90.254 11.5203C90.589 12.0225 91.0497 12.4409 91.6361 12.7338C92.2224 13.0268 92.9344 13.1523 93.73 13.1523C94.5258 13.1523 95.2378 13.0268 95.8241 12.7338ZM85.7309 6.41518L83.5531 11.9388H84.307L82.1292 6.41518H78.9463V13.0267H80.9146V7.16838H80.4959C80.4959 7.21018 82.8831 13.0267 82.8831 13.0267H84.9352L87.3224 7.21018H86.9035C86.9035 7.16838 86.9035 13.0267 86.9035 13.0267H88.872V6.41518H85.689H85.7309Z" fill="white"/>
</g>
<defs>
<clipPath id="clip0_78_16">
<rect width="163" height="36" fill="white"/>
</clipPath>
</defs>
</svg>
